<svg width="27" height="31" viewBox="0 0 27 31" fill="none" xmlns="http://www.w3.org/2000/svg">
<g filter="url(#filter0_d_4_17)">
<path d="M11.2236 19.2547C11.7823 19.1365 15.1868 19.1365 15.7456 19.2547C16.2232 19.365 16.7397 19.6228 16.7397 20.1856C16.7119 20.7214 16.3976 21.1965 15.9633 21.4981C15.4001 21.9372 14.7392 22.2152 14.0483 22.3154C13.6662 22.3649 13.2907 22.366 12.9219 22.3154C12.2299 22.2152 11.569 21.9372 11.007 21.497C10.5715 21.1965 10.2572 20.7214 10.2294 20.1856C10.2294 19.6228 10.7459 19.365 11.2236 19.2547ZM13.5505 0C15.8754 0 18.2503 1.10314 19.661 2.93345C20.5763 4.11201 20.9961 5.28944 20.9961 7.11975V7.5959C20.9961 8.99959 21.3671 9.82694 22.1836 10.7804C22.8023 11.4828 23 12.3844 23 13.3626C23 14.3397 22.679 15.2672 22.0358 16.0203C21.1939 16.923 20.0064 17.4994 18.7946 17.5996C17.0384 17.7493 15.2811 17.8754 13.5006 17.8754C11.7189 17.8754 9.9627 17.7999 8.20655 17.5996C6.99357 17.4994 5.80614 16.923 4.96527 16.0203C4.32213 15.2672 4 14.3397 4 13.3626C4 12.3844 4.19883 11.4828 4.81643 10.7804C5.6584 9.82694 6.00497 8.99959 6.00497 7.5959V7.11975C6.00497 5.23991 6.47372 4.0107 7.43899 2.80738C8.87413 1.05248 11.1746 0 13.4506 0H13.5505Z" fill="#D6D6D6"/>
</g>
<defs>
<filter id="filter0_d_4_17" x="0" y="0" width="27" height="30.3529" filterUnits="userSpaceOnUse" color-interpolation-filters="sRGB">
<feFlood flood-opacity="0" result="BackgroundImageFix"/>
<feColorMatrix in="SourceAlpha" type="matrix" values="0 0 0 0 0 0 0 0 0 0 0 0 0 0 0 0 0 0 127 0" result="hardAlpha"/>
<feOffset dy="4"/>
<feGaussianBlur stdDeviation="2"/>
<feComposite in2="hardAlpha" operator="out"/>
<feColorMatrix type="matrix" values="0 0 0 0 0 0 0 0 0 0 0 0 0 0 0 0 0 0 0.25 0"/>
<feBlend mode="normal" in2="BackgroundImageFix" result="effect1_dropShadow_4_17"/>
<feBlend mode="normal" in="SourceGraphic" in2="effect1_dropShadow_4_17" result="shape"/>
</filter>
</defs>
</svg>
